<svg width="184" height="37" viewBox="0 0 184 37" fill="none" xmlns="http://www.w3.org/2000/svg">
<circle opacity="0.5" cx="18.2255" cy="18.6571" r="17.2382" stroke="#FD5B2F" stroke-width="1.04474"/>
<path d="M24.4947 16.8478C25.8877 17.652 25.8877 19.6626 24.4947 20.4669L16.6591 24.9907C15.2661 25.795 13.5249 24.7897 13.5249 23.1812L13.5249 14.1335C13.5249 12.525 15.2661 11.5197 16.6591 12.3239L24.4947 16.8478Z" fill="#FD5B2F"/>
<path d="M56.9385 16.8285C57.83 16.9957 58.5599 17.3801 59.1282 17.9819C59.6966 18.5837 59.9808 19.347 59.9808 20.272C59.9808 21.4087 59.5907 22.3058 58.8106 22.9632C58.0306 23.6207 57.0833 23.9495 55.9689 23.9495C55.0774 23.9495 54.2862 23.7489 53.5953 23.3477C52.9044 22.9354 52.414 22.3448 52.1243 21.5758L53.4281 20.8069C53.7736 21.8879 54.6205 22.4283 55.9689 22.4283C56.6933 22.4283 57.2839 22.2389 57.7408 21.86C58.1977 21.4811 58.4262 20.9518 58.4262 20.272C58.4262 19.5922 58.1977 19.0629 57.7408 18.684C57.2839 18.2939 56.6933 18.0989 55.9689 18.0989H55.5678L54.9493 17.1461L57.6572 13.4853H52.4586V12.0311H59.4793V13.4018L56.9385 16.8285ZM66.419 12.0311C68.0126 12.0311 69.3331 12.5994 70.3806 13.7361C71.4393 14.8616 71.9687 16.2435 71.9687 17.8816C71.9687 19.5198 71.4393 20.9072 70.3806 22.0439C69.3331 23.1694 68.0126 23.7322 66.419 23.7322H61.8555V12.0311H66.419ZM66.419 22.2612C67.6114 22.2612 68.5865 21.8433 69.3443 21.0075C70.102 20.1717 70.4809 19.1297 70.4809 17.8816C70.4809 16.6335 70.102 15.5915 69.3443 14.7558C68.5865 13.92 67.6114 13.5021 66.419 13.5021H63.4101V22.2612H66.419ZM85.5214 12.0311V13.5021H82.0613V23.7322H80.5234V13.5021H77.0799V12.0311H85.5214ZM92.4455 22.6791C91.5874 23.526 90.5454 23.9495 89.3196 23.9495C88.0938 23.9495 87.0518 23.526 86.1937 22.6791C85.3468 21.8321 84.9233 20.7902 84.9233 19.5532C84.9233 18.3162 85.3468 17.2743 86.1937 16.4273C87.0518 15.5804 88.0938 15.1569 89.3196 15.1569C90.5454 15.1569 91.5874 15.5804 92.4455 16.4273C93.3035 17.2743 93.7326 18.3162 93.7326 19.5532C93.7326 20.7902 93.3035 21.8321 92.4455 22.6791ZM89.3196 22.5286C90.1554 22.5286 90.8575 22.2445 91.4258 21.6761C91.9941 21.1078 92.2783 20.4001 92.2783 19.5532C92.2783 18.7063 91.9941 17.9986 91.4258 17.4303C90.8575 16.862 90.1554 16.5778 89.3196 16.5778C88.4949 16.5778 87.7985 16.862 87.2301 17.4303C86.6618 17.9986 86.3776 18.7063 86.3776 19.5532C86.3776 20.4001 86.6618 21.1078 87.2301 21.6761C87.7985 22.2445 88.4949 22.5286 89.3196 22.5286ZM101.214 15.3742H102.668V23.7322H101.214V22.5286C100.623 23.4759 99.7207 23.9495 98.506 23.9495C97.5254 23.9495 96.7397 23.643 96.1491 23.0301C95.5585 22.4061 95.2631 21.5647 95.2631 20.506V15.3742H96.7174V20.4224C96.7174 21.1022 96.9013 21.6315 97.269 22.0104C97.6368 22.3782 98.1438 22.5621 98.7902 22.5621C99.5145 22.5621 100.1 22.3392 100.545 21.8934C100.991 21.4365 101.214 20.74 101.214 19.8039V15.3742ZM106.337 16.7784C106.816 15.742 107.685 15.2238 108.944 15.2238V16.7449C108.231 16.7115 107.618 16.901 107.106 17.3133C106.593 17.7256 106.337 18.3887 106.337 19.3025V23.7322H104.882V15.3742H106.337V16.7784ZM121.6 22.6791C120.742 23.526 119.7 23.9495 118.474 23.9495C117.249 23.9495 116.207 23.526 115.349 22.6791C114.502 21.8321 114.078 20.7902 114.078 19.5532C114.078 18.3162 114.502 17.2743 115.349 16.4273C116.207 15.5804 117.249 15.1569 118.474 15.1569C119.7 15.1569 120.742 15.5804 121.6 16.4273C122.458 17.2743 122.887 18.3162 122.887 19.5532C122.887 20.7902 122.458 21.8321 121.6 22.6791ZM118.474 22.5286C119.31 22.5286 120.012 22.2445 120.581 21.6761C121.149 21.1078 121.433 20.4001 121.433 19.5532C121.433 18.7063 121.149 17.9986 120.581 17.4303C120.012 16.862 119.31 16.5778 118.474 16.5778C117.65 16.5778 116.953 16.862 116.385 17.4303C115.817 17.9986 115.532 18.7063 115.532 19.5532C115.532 20.4001 115.817 21.1078 116.385 21.6761C116.953 22.2445 117.65 22.5286 118.474 22.5286ZM128.588 13.2179C127.117 13.0953 126.381 13.7305 126.381 15.1235V15.3742H128.588V16.7784H126.381V23.7322H124.927V16.7784H123.59V15.3742H124.927V15.1235C124.927 13.998 125.239 13.1455 125.863 12.566C126.498 11.9865 127.406 11.7358 128.588 11.8138V13.2179ZM137.802 23.9495C136.71 23.9495 135.774 23.6932 134.994 23.1806C134.225 22.6679 133.684 21.9659 133.372 21.0744L134.71 20.3054C135.167 21.7207 136.209 22.4283 137.836 22.4283C138.638 22.4283 139.251 22.2668 139.674 21.9436C140.098 21.6093 140.31 21.1691 140.31 20.623C140.31 20.0658 140.098 19.6479 139.674 19.3693C139.251 19.0907 138.543 18.7954 137.551 18.4834C137.061 18.3274 136.688 18.2048 136.431 18.1156C136.175 18.0153 135.852 17.8705 135.462 17.681C135.083 17.4804 134.799 17.2798 134.609 17.0793C134.42 16.8675 134.247 16.5945 134.091 16.2602C133.946 15.9259 133.874 15.547 133.874 15.1235C133.874 14.1094 134.231 13.307 134.944 12.7164C135.657 12.1146 136.526 11.8138 137.551 11.8138C138.476 11.8138 139.279 12.0478 139.959 12.5158C140.649 12.9839 141.168 13.6024 141.513 14.3713L140.209 15.1235C139.708 13.92 138.822 13.3182 137.551 13.3182C136.916 13.3182 136.404 13.4742 136.014 13.7862C135.624 14.0983 135.429 14.5217 135.429 15.0566C135.429 15.5693 135.612 15.9593 135.98 16.2267C136.348 16.4942 136.983 16.7728 137.886 17.0625C138.209 17.1628 138.437 17.2353 138.571 17.2798C138.705 17.3244 138.911 17.4024 139.19 17.5139C139.479 17.6253 139.691 17.7145 139.825 17.7813C139.959 17.8482 140.137 17.9429 140.36 18.0655C140.594 18.1881 140.766 18.3051 140.878 18.4165C140.989 18.528 141.117 18.6673 141.262 18.8344C141.418 18.9904 141.53 19.152 141.597 19.3192C141.664 19.4863 141.719 19.6814 141.764 19.9042C141.82 20.116 141.847 20.3444 141.847 20.5896C141.847 21.6148 141.474 22.4339 140.727 23.0468C139.981 23.6486 139.006 23.9495 137.802 23.9495ZM148.151 15.1569C149.321 15.1569 150.319 15.586 151.144 16.4441C151.968 17.291 152.381 18.3274 152.381 19.5532C152.381 20.779 151.968 21.821 151.144 22.6791C150.319 23.526 149.321 23.9495 148.151 23.9495C146.77 23.9495 145.716 23.3979 144.992 22.2946V27.0754H143.538V15.3742H144.992V16.8118C145.716 15.7086 146.77 15.1569 148.151 15.1569ZM147.968 22.5454C148.803 22.5454 149.505 22.2612 150.074 21.6928C150.642 21.1134 150.926 20.4001 150.926 19.5532C150.926 18.7063 150.642 17.9986 150.074 17.4303C149.505 16.8508 148.803 16.5611 147.968 16.5611C147.121 16.5611 146.413 16.8508 145.845 17.4303C145.276 17.9986 144.992 18.7063 144.992 19.5532C144.992 20.4001 145.276 21.1134 145.845 21.6928C146.413 22.2612 147.121 22.5454 147.968 22.5454ZM161.036 15.3742H162.49V23.7322H161.036V22.2946C160.312 23.3979 159.259 23.9495 157.877 23.9495C156.707 23.9495 155.709 23.526 154.885 22.6791C154.06 21.821 153.648 20.779 153.648 19.5532C153.648 18.3274 154.06 17.291 154.885 16.4441C155.709 15.586 156.707 15.1569 157.877 15.1569C159.259 15.1569 160.312 15.7086 161.036 16.8118V15.3742ZM158.061 22.5454C158.908 22.5454 159.615 22.2612 160.184 21.6928C160.752 21.1134 161.036 20.4001 161.036 19.5532C161.036 18.7063 160.752 17.9986 160.184 17.4303C159.615 16.8508 158.908 16.5611 158.061 16.5611C157.225 16.5611 156.523 16.8508 155.955 17.4303C155.386 17.9986 155.102 18.7063 155.102 19.5532C155.102 20.4001 155.386 21.1134 155.955 21.6928C156.523 22.2612 157.225 22.5454 158.061 22.5454ZM168.622 23.9495C167.363 23.9495 166.315 23.5316 165.479 22.6958C164.644 21.8489 164.226 20.8013 164.226 19.5532C164.226 18.3051 164.644 17.2631 165.479 16.4273C166.315 15.5804 167.363 15.1569 168.622 15.1569C169.447 15.1569 170.188 15.3575 170.845 15.7587C171.503 16.1487 171.993 16.6781 172.316 17.3467L171.096 18.0488C170.884 17.603 170.556 17.2464 170.11 16.979C169.675 16.7115 169.179 16.5778 168.622 16.5778C167.786 16.5778 167.084 16.862 166.516 17.4303C165.959 17.9986 165.68 18.7063 165.68 19.5532C165.68 20.389 165.959 21.0911 166.516 21.6594C167.084 22.2277 167.786 22.5119 168.622 22.5119C169.179 22.5119 169.681 22.3838 170.126 22.1275C170.572 21.86 170.912 21.5034 171.146 21.0576L172.383 21.7764C172.027 22.4339 171.514 22.9632 170.845 23.3644C170.177 23.7545 169.436 23.9495 168.622 23.9495ZM174.724 20.2218C174.869 20.9685 175.209 21.548 175.744 21.9603C176.29 22.3726 176.959 22.5788 177.75 22.5788C178.853 22.5788 179.656 22.172 180.157 21.3585L181.394 22.0606C180.581 23.3199 179.355 23.9495 177.717 23.9495C176.39 23.9495 175.309 23.5372 174.474 22.7125C173.649 21.8767 173.237 20.8236 173.237 19.5532C173.237 18.2939 173.643 17.2464 174.457 16.4106C175.27 15.5748 176.324 15.1569 177.616 15.1569C178.842 15.1569 179.839 15.5915 180.608 16.4608C181.388 17.3189 181.779 18.3552 181.779 19.5699C181.779 19.7817 181.762 19.999 181.728 20.2218H174.724ZM177.616 16.5276C176.836 16.5276 176.19 16.7505 175.677 17.1963C175.165 17.6309 174.847 18.2159 174.724 18.9514H180.308C180.185 18.1602 179.873 17.5584 179.371 17.1461C178.87 16.7338 178.285 16.5276 177.616 16.5276Z" fill="#FD5B2F"/>
</svg>
