<svg width="48" height="53" viewBox="0 0 48 53" fill="none" xmlns="http://www.w3.org/2000/svg">
<path d="M42.732 17.9963V8.13913C42.732 2.47273 38.7773 0.465881 35.0587 0.465881H12.9834C9.26481 0.465881 5.31013 2.47273 5.31013 8.13913V17.9963C2.59498 18.7046 0.588135 21.1246 0.588135 24.0759V39.8946C0.588135 44.5576 3.71646 46.3873 6.78576 46.5644V50.5781C6.78576 51.7586 7.73016 52.703 8.91066 52.703H11.0946C12.2751 52.703 13.2195 51.7586 13.2195 50.5781V46.5644H34.8816V50.5781C34.8816 51.7586 35.826 52.703 37.0065 52.703H39.1905C40.371 52.703 41.3154 51.7586 41.3154 50.5781V46.5644C45.8603 46.3283 47.513 43.0229 47.513 39.8946V24.0169C47.3949 21.1246 45.3881 18.6456 42.732 17.9963ZM7.43503 8.13913C7.43503 3.29908 10.9175 2.53176 12.9834 2.53176H35.0587C37.1246 2.53176 40.6071 3.24006 40.6071 8.0801V17.7602C37.4197 18.0553 34.8816 20.7115 34.8816 24.0169V25.4925H13.1605V24.0169C13.1605 20.7115 10.6224 18.0553 7.43503 17.7602V8.13913ZM34.8226 27.6174V34.9365H13.1605V27.6174H34.8226ZM11.0946 50.5781H8.91066V46.5644H11.0946V50.5781ZM39.1315 50.5781H36.9475V46.5644H39.1315V50.5781ZM45.3881 39.8946H45.3291C45.3291 41.9604 44.5617 44.4985 40.7251 44.4985H39.1315H36.9475H11.0946H8.91066H7.31698C5.25111 44.4985 2.71303 43.7312 2.71303 39.8946V24.0169C2.71303 21.7149 4.60183 19.8261 6.90381 19.8261C9.20578 19.8261 11.0946 21.7149 11.0946 24.0169V35.9989C11.0946 36.5892 11.5668 37.0614 12.157 37.0614H35.9441C36.5344 37.0614 37.0065 36.5892 37.0065 35.9989V24.0169C37.0065 21.7149 38.8954 19.8261 41.1973 19.8261C43.4993 19.8261 45.3881 21.7149 45.3881 24.0169V39.8946Z" fill="#FD5B2F"/>
</svg>
