<svg width="51" height="53" viewBox="0 0 51 53" fill="none" xmlns="http://www.w3.org/2000/svg">
<path d="M50.1257 19.8175V11.7598C50.1221 8.59152 47.5544 6.02385 44.3861 6.02017H42.8748V5.11395C42.8617 2.5426 40.7735 0.465881 38.2026 0.465881C35.6317 0.465881 33.5439 2.5426 33.53 5.11395V6.02017H16.6495V5.11395C16.6364 2.5426 14.5482 0.465881 11.9773 0.465881C9.40631 0.465881 7.31855 2.5426 7.30464 5.11395V6.02017H5.79292C2.62506 6.02385 0.057393 8.59152 0.0537109 11.7598V46.9634C0.057393 50.1316 2.62506 52.6993 5.79292 52.703H44.3861C47.5544 52.6993 50.1221 50.1316 50.1257 46.9634V20.646C50.2166 20.3772 50.2166 20.0863 50.1257 19.8175ZM38.2026 3.05442C39.3391 3.05605 40.2601 3.97659 40.2613 5.11395V7.86573C40.2527 8.99614 39.333 9.90808 38.2018 9.90808C37.071 9.90808 36.1517 8.99614 36.1427 7.86573V5.11395C36.1439 3.97659 37.0652 3.05564 38.2026 3.05442ZM9.91731 5.11395C9.92631 3.98272 10.8456 3.07078 11.9764 3.07078C13.1077 3.07078 14.0266 3.98272 14.036 5.11395V7.86573C14.0266 8.99614 13.1077 9.90808 11.9764 9.90808C10.8456 9.90808 9.92631 8.99614 9.91731 7.86573V5.11395ZM5.79292 8.63325H7.36846C7.74404 10.8859 9.6927 12.5371 11.9764 12.5371C14.2606 12.5371 16.2093 10.8859 16.5848 8.63325H33.5942C33.9698 10.8859 35.9189 12.5371 38.2026 12.5371C40.4863 12.5371 42.4354 10.8859 42.8106 8.63325H44.3861C46.1122 8.63529 47.5106 10.0337 47.5127 11.7598V18.9248H2.66679V11.7602C2.66843 10.0341 4.06764 8.63529 5.79292 8.63325ZM44.3861 50.0899H5.79292C4.06764 50.0879 2.66884 48.6895 2.66679 46.9634V21.5379H47.5127V46.9634C47.5106 48.6895 46.1122 50.0879 44.3861 50.0899Z" fill="#FD5B2F"/>
<path d="M33.0482 33.1877L28.3506 32.5183L26.2551 28.3555C26.0334 27.9144 25.5821 27.6362 25.0879 27.6362C24.5945 27.6362 24.1432 27.9144 23.9215 28.3555L21.8251 32.5183L17.1283 33.1877C16.6329 33.258 16.2213 33.6054 16.0683 34.0816C15.9157 34.5578 16.0478 35.0799 16.4099 35.4256L19.793 38.6589L18.996 43.2169C18.9105 43.7059 19.1089 44.2009 19.509 44.4946C19.9088 44.7888 20.4406 44.8305 20.8817 44.6035L25.0887 42.4355L29.2957 44.6035C29.7364 44.8305 30.2682 44.7884 30.6675 44.4942C31.0668 44.2009 31.2661 43.7059 31.181 43.2174L30.3836 38.6593L33.7671 35.426C34.1287 35.0807 34.2613 34.5582 34.1083 34.0824C33.9553 33.6062 33.5437 33.2584 33.0482 33.1881V33.1877ZM28.0733 37.2511C27.7578 37.5522 27.6138 37.9912 27.6891 38.4208L28.1534 41.0748L25.6868 39.8036C25.3117 39.6101 24.8657 39.6101 24.4897 39.8036L22.0231 41.0748L22.4871 38.4208C22.5627 37.9912 22.4183 37.5522 22.1029 37.2511L20.1604 35.3953L22.8696 35.0095C23.293 34.9493 23.66 34.6855 23.8523 34.3037L25.0879 31.849L26.3242 34.3037C26.5165 34.6855 26.8835 34.9493 27.3066 35.0095L30.0162 35.3953L28.0733 37.2511Z" fill="#FD5B2F"/>
</svg>
