<svg width="84" height="53" viewBox="0 0 84 53" fill="none" xmlns="http://www.w3.org/2000/svg">
<path d="M78.8914 18.4224H77.259V11.0765C77.259 7.47568 74.329 4.54691 70.7294 4.54691C69.4707 4.54691 68.2935 4.90463 67.2962 5.52444C66.6286 2.62882 64.0282 0.465881 60.9349 0.465881H60.933C57.3341 0.465881 54.4034 3.39465 54.4034 6.99552V18.4224H29.5946V6.99552C29.5946 3.39465 26.6639 0.465881 23.063 0.465881C19.9697 0.465881 17.3694 2.62882 16.7017 5.52444C15.7044 4.90463 14.5273 4.54691 13.2686 4.54691C9.66898 4.54691 6.73893 7.47568 6.73893 11.0765V18.4224H5.10652C2.40667 18.4224 0.20929 20.6198 0.20929 23.3196V29.8493C0.20929 32.5491 2.40667 34.7465 5.10652 34.7465H6.73893V42.0923C6.73893 45.6932 9.66898 48.622 13.2686 48.622C14.5273 48.622 15.7044 48.2642 16.7017 47.6444C17.3694 50.5401 19.9697 52.703 23.063 52.703H23.0649C26.6639 52.703 29.5946 49.7742 29.5946 46.1734V34.7465H54.4034V46.1734C54.4034 49.7742 57.3341 52.703 60.9349 52.703C64.0282 52.703 66.6286 50.5401 67.2962 47.6444C68.2935 48.2642 69.4707 48.622 70.7294 48.622C74.329 48.622 77.259 45.6932 77.259 42.0923V34.7465H78.8914C81.5913 34.7465 83.7887 32.5491 83.7887 29.8493V23.3196C83.7887 20.6198 81.5913 18.4224 78.8914 18.4224ZM6.73893 31.4817H5.10652C4.20678 31.4817 3.47411 30.749 3.47411 29.8493V23.3196C3.47411 22.4199 4.20678 21.6872 5.10652 21.6872H6.73893V31.4817ZM16.5334 42.0923C16.5334 42.9933 16.168 43.8096 15.5769 44.4007C14.9858 44.9918 14.1696 45.3572 13.2686 45.3572C11.4678 45.3572 10.0037 43.8931 10.0037 42.0923V11.0765C10.0037 9.27579 11.4678 7.81173 13.2686 7.81173C15.0693 7.81173 16.5334 9.27579 16.5334 11.0765V42.0923ZM26.3298 46.1734C26.3298 47.9741 24.8638 49.4382 23.0649 49.4382H23.063C21.2642 49.4382 19.7982 47.9741 19.7982 46.1734V6.99552C19.7982 5.19477 21.2642 3.7307 23.0649 3.7307C24.8638 3.7307 26.3298 5.19477 26.3298 6.99552V46.1734ZM54.3938 24.952H42.9784C42.0774 24.952 41.346 25.6834 41.346 26.5844C41.346 27.4855 42.0774 28.2168 42.9784 28.2168H54.3938V31.4817H29.5863V21.6872H54.3938V24.952ZM64.1998 46.1734C64.1998 47.9741 62.7338 49.4382 60.933 49.4382C59.1342 49.4382 57.6682 47.9741 57.6682 46.1734V26.668C57.6669 26.7037 57.6637 26.7394 57.6586 26.7738V26.3951C57.6637 26.4295 57.6669 26.4652 57.6682 26.5009V6.99552C57.6682 5.19477 59.1342 3.7307 60.933 3.7307H60.9349C62.7338 3.7307 64.1998 5.19477 64.1998 6.99552V46.1734ZM73.9942 42.0923C73.9942 43.8931 72.5301 45.3572 70.7294 45.3572C68.9286 45.3572 67.4646 43.8931 67.4646 42.0923V11.0765C67.4646 9.27579 68.9286 7.81173 70.7294 7.81173C72.5301 7.81173 73.9942 9.27579 73.9942 11.0765V42.0923ZM80.5239 29.8493C80.5239 30.749 79.7912 31.4817 78.8914 31.4817H77.259V21.6872H78.8914C79.7912 21.6872 80.5239 22.4199 80.5239 23.3196V29.8493Z" fill="#FD5B2F"/>
<path d="M36.4517 28.2168C35.5501 28.2168 34.8187 27.4861 34.8187 26.5844C34.8187 25.6828 35.5488 24.952 36.4504 24.952H36.4517C37.3534 24.952 38.0841 25.6828 38.0841 26.5844C38.0841 27.4861 37.3534 28.2168 36.4517 28.2168Z" fill="#FD5B2F"/>
</svg>
