<svg width="53" height="53" viewBox="0 0 53 53" fill="none" xmlns="http://www.w3.org/2000/svg">
<path d="M46.9675 10.1342C46.8736 10.0159 46.7757 9.8975 46.6736 9.77914C44.2683 6.91008 41.2723 4.59361 37.8902 2.98778C34.5081 1.38195 30.8194 0.524536 27.0758 0.474044C26.9493 0.469963 26.8268 0.465881 26.7003 0.465881C26.5738 0.465881 26.4514 0.469963 26.3249 0.474044C22.5671 0.525027 18.865 1.38896 15.4729 3.00648C12.0807 4.624 9.079 6.95676 6.67395 9.84444C6.60542 9.91808 6.54137 9.99576 6.48214 10.0771C6.47908 10.0832 6.47493 10.0887 6.46989 10.0934C2.66175 14.746 0.581055 20.5731 0.581055 26.5855C0.581055 32.5978 2.66175 38.4249 6.46989 43.0775C6.47493 43.0822 6.47908 43.0877 6.48214 43.0938C6.54137 43.1752 6.60543 43.2528 6.67395 43.3265L6.67803 43.3306C9.08279 46.2172 12.084 48.5491 15.4754 50.1659C18.8668 51.7827 22.5681 52.6462 26.3249 52.6969C26.5754 52.705 26.8252 52.705 27.0758 52.6969C30.8194 52.6464 34.5081 51.789 37.8902 50.1831C41.2723 48.5773 44.2683 46.2608 46.6736 43.3918C46.7757 43.2734 46.8736 43.1551 46.9675 43.0367C50.7529 38.3896 52.8199 32.5792 52.8199 26.5855C52.8199 20.5917 50.7529 14.7813 46.9675 10.1342ZM41.1844 25.8713C41.144 22.001 40.5853 18.1536 39.5234 14.4317C41.8483 13.698 44.0691 12.6678 46.1308 11.3667C49.3931 15.5122 51.2334 20.5981 51.3792 25.8713H41.1844ZM27.4145 1.93103C31.7773 2.37996 35.5728 6.88558 37.7644 13.4808C34.3908 14.4067 30.9126 14.8977 27.4145 14.9418V1.93103ZM25.9861 14.9418C22.488 14.8977 19.0099 14.4067 15.6362 13.4808C17.8278 6.88558 21.6233 2.37996 25.9861 1.93103V14.9418ZM25.9861 16.3703V25.8713H13.6446C13.6836 22.1425 14.2118 18.4351 15.2159 14.8439C18.7258 15.8118 22.3455 16.3248 25.9861 16.3703ZM25.9861 27.2997V36.8007C22.3455 36.8461 18.7258 37.3591 15.2159 38.327C14.2118 34.7358 13.6836 31.0284 13.6446 27.2997H25.9861ZM25.9861 38.2291V51.2399C21.6233 50.791 17.8278 46.2853 15.6362 39.6901C19.0099 38.7642 22.488 38.2732 25.9861 38.2291ZM27.4145 38.2291C30.9126 38.2732 34.3908 38.7642 37.7644 39.6901C35.5728 46.2853 31.7773 50.791 27.4145 51.2399V38.2291ZM27.4145 36.8007V27.2997H39.756C39.7171 31.0297 39.1888 34.7385 38.1848 38.3311C34.6758 37.3581 31.0556 36.8437 27.4145 36.8007ZM27.4145 25.8713V16.3703C31.0556 16.3272 34.6758 15.8128 38.1848 14.8398C39.1888 18.4324 39.7171 22.1412 39.756 25.8713H27.4145ZM45.2085 10.2566C43.2962 11.448 41.2424 12.3954 39.0949 13.0767C37.5277 8.41603 35.1729 4.71031 32.3691 2.55137C37.3423 3.73135 41.8277 6.42319 45.2085 10.2566ZM21.0316 2.55137C18.2278 4.71031 15.8729 8.41603 14.3058 13.0767C12.1597 12.3933 10.1063 11.4475 8.19215 10.2607C11.5708 6.42395 16.057 3.73028 21.0316 2.55137ZM7.2698 11.3626C9.33122 12.6664 11.552 13.6993 13.8772 14.4358C12.815 18.1562 12.2563 22.0023 12.2162 25.8713H2.0214C2.16722 20.5969 4.0075 15.5096 7.2698 11.3626ZM12.2162 27.2997C12.2563 31.1686 12.815 35.0147 13.8772 38.7351V38.7392C11.5515 39.4726 9.3305 40.5042 7.2698 41.8083C4.0075 37.6613 2.16722 32.574 2.0214 27.2997H12.2162ZM8.19215 42.9102C10.1063 41.7234 12.1597 40.7776 14.3058 40.0942C15.8729 44.7549 18.2278 48.4606 21.0316 50.6196C16.057 49.4406 11.5709 46.7469 8.19215 42.9102ZM32.3691 50.6196C35.1729 48.4606 37.5277 44.7549 39.0949 40.0942C41.2424 40.7755 43.2962 41.7229 45.2085 42.9143C41.8277 46.7477 37.3423 49.4396 32.3691 50.6196ZM46.1308 41.8042C44.0691 40.5031 41.8483 39.473 39.5234 38.7392C40.5853 35.0173 41.144 31.1699 41.1844 27.2997H51.3792C51.2334 32.5728 49.3931 37.6587 46.1308 41.8042Z" fill="#FD5B2F"/>
</svg>
