<svg width="53" height="298" viewBox="0 0 53 298" fill="none" xmlns="http://www.w3.org/2000/svg">
<path opacity="0.1" d="M41.2877 277.962C41.2877 283.491 39.496 288.115 35.9125 291.835C32.2949 295.555 27.6364 297.415 21.937 297.415C16.2035 297.415 11.4938 295.521 7.80791 291.733C4.08793 287.91 2.22794 283.286 2.22794 277.86C2.22794 274.481 2.94463 271.341 4.37802 268.44C5.77728 265.539 7.6714 263.253 10.0604 261.581L15.026 266.649C11.3743 269.618 9.54845 273.218 9.54845 277.45C9.54845 280.863 10.7259 283.73 13.0807 286.05C15.4014 288.371 18.3535 289.532 21.937 289.532C25.4181 289.532 28.3019 288.388 30.5885 286.102C32.8751 283.815 34.0184 280.948 34.0184 277.501C34.0184 273.099 32.1755 269.43 28.4896 266.495L33.2505 261.273C35.6736 263.048 37.6189 265.42 39.0865 268.389C40.554 271.324 41.2877 274.515 41.2877 277.962ZM26.7491 258.827C22.6196 258.827 19.1556 257.428 16.357 254.629C13.4903 251.797 12.0569 248.213 12.0569 243.879C12.0569 239.544 13.4903 235.961 16.357 233.128C19.1556 230.33 22.6196 228.931 26.7491 228.931C30.9127 228.931 34.3938 230.33 37.1923 233.128C40.025 235.961 41.4413 239.544 41.4413 243.879C41.4413 248.213 40.025 251.797 37.1923 254.629C34.3938 257.428 30.9127 258.827 26.7491 258.827ZM32.4314 249.408C33.9672 247.94 34.7351 246.097 34.7351 243.879C34.7351 241.729 33.9672 239.903 32.4314 238.401C30.8274 236.9 28.9333 236.149 26.7491 236.149C24.5649 236.149 22.6878 236.9 21.1179 238.401C19.5822 239.903 18.8143 241.729 18.8143 243.879C18.8143 246.097 19.5822 247.94 21.1179 249.408C22.6196 250.875 24.4966 251.609 26.7491 251.609C28.9674 251.609 30.8615 250.875 32.4314 249.408ZM40.7246 196.327L40.7246 202.726L2.89344 215.268L2.89344 206.975L28.336 199.347L2.89344 190.747L2.89344 185.935L28.336 177.181L2.89344 169.656L2.89344 161.363L40.7246 173.854L40.7246 180.253L15.9475 188.29L40.7246 196.327ZM26.7491 161.991C22.6196 161.991 19.1555 160.592 16.357 157.794C13.4903 154.961 12.0569 151.377 12.0569 147.043C12.0569 142.709 13.4903 139.125 16.357 136.293C19.1555 133.494 22.6196 132.095 26.7491 132.095C30.9127 132.095 34.3938 133.494 37.1923 136.293C40.025 139.125 41.4413 142.709 41.4413 147.043C41.4413 151.377 40.025 154.961 37.1923 157.794C34.3938 160.592 30.9127 161.991 26.7491 161.991ZM32.4314 152.572C33.9672 151.104 34.7351 149.262 34.7351 147.043C34.7351 144.893 33.9672 143.067 32.4314 141.566C30.8274 140.064 28.9333 139.313 26.7491 139.313C24.5649 139.313 22.6878 140.064 21.1179 141.566C19.5822 143.067 18.8143 144.893 18.8143 147.043C18.8143 149.262 19.5822 151.104 21.1179 152.572C22.6196 154.039 24.4966 154.773 26.7491 154.773C28.9674 154.773 30.8615 154.039 32.4314 152.572ZM40.7246 119.794L40.7246 127.012L12.8248 127.012L12.8248 120.101L16.5618 120.101C13.5585 118.429 12.0569 115.869 12.0569 112.422C12.0569 111.296 12.2616 110.169 12.6712 109.043L19.5821 109.658C19.2067 110.886 19.019 111.995 19.019 112.985C19.019 115.101 19.7357 116.773 21.1691 118.002C22.5684 119.196 24.6673 119.794 27.4658 119.794L40.7246 119.794ZM40.7246 78.2818L40.7246 87.1381L28.7968 96.3527L30.4861 98.2469L40.7246 98.2469L40.7246 105.465L1.81839 105.465L1.81839 98.2469L22.3465 98.2469L12.8248 88.1108L12.8248 78.9985L24.2407 91.4383L40.7246 78.2818ZM5.24828 67.4286C6.51103 67.4286 7.569 67.8552 8.42221 68.7085C9.27542 69.5617 9.70202 70.6196 9.70202 71.8824C9.70202 73.1451 9.27542 74.2031 8.42221 75.0563C7.569 75.9095 6.51103 76.3361 5.24828 76.3361C3.98554 76.3361 2.94463 75.9095 2.12555 75.0563C1.27234 74.2031 0.845737 73.1451 0.845737 71.8824C0.845737 70.6196 1.27234 69.5617 2.12555 68.7085C2.94463 67.8552 3.98554 67.4286 5.24828 67.4286ZM12.8248 68.2989L40.7246 68.2989L40.7246 75.517L12.8248 75.517L12.8248 68.2989ZM40.7246 54.6534L40.7246 61.8715L12.8248 61.8715L12.8248 54.8069L16.7154 54.8069C15.3161 54.0561 14.1899 52.8958 13.3367 51.3259C12.4835 49.756 12.0569 47.9983 12.0569 46.053C12.0569 43.0156 13.0637 40.4389 15.0772 38.323C17.0908 36.207 19.9576 35.1491 23.6775 35.1491L40.7246 35.1491L40.7246 42.3672L25.6228 42.3672C23.4386 42.3672 21.7493 42.8962 20.5548 43.9542C19.3262 45.0121 18.7119 46.4455 18.7119 48.2543C18.7119 50.1655 19.3774 51.7183 20.7084 52.9128C22.0053 54.0732 23.6946 54.6534 25.7764 54.6534L40.7246 54.6534ZM15.8963 7.62915L12.8248 7.62915L12.8248 0.974143L37.9602 0.974142C42.4651 0.974142 46.0145 2.40753 48.6082 5.2743C51.2361 8.1752 52.55 11.8952 52.55 16.4342C52.55 21.2463 51.202 25.5124 48.5058 29.2323L43.0794 26.4168C45.2637 23.2087 46.3558 19.9494 46.3558 16.639C46.3558 13.9429 45.6391 11.8269 44.2057 10.2912C42.7723 8.72125 40.9123 7.9363 38.6257 7.9363L37.1923 7.9363C39.5813 10.0864 40.7758 12.9532 40.7758 16.5366C40.7758 20.632 39.4277 23.9766 36.7316 26.5703C34.0355 29.1641 30.6226 30.461 26.4931 30.461C22.3636 30.461 18.9337 29.0958 16.2034 26.3656C13.4732 23.6353 12.1081 20.2566 12.1081 16.2295C12.1081 12.8166 13.3708 9.94987 15.8963 7.62915ZM26.5443 23.1916C28.865 23.1916 30.7591 22.4579 32.2267 20.9904C33.7283 19.4887 34.4791 17.6458 34.4791 15.4616C34.4791 13.2774 33.7283 11.4345 32.2267 9.93281C30.725 8.46529 28.8309 7.73153 26.5443 7.73153C24.2918 7.73153 22.4319 8.46529 20.9643 9.93281C19.4627 11.4345 18.7119 13.2774 18.7119 15.4616C18.7119 17.6458 19.4627 19.4887 20.9643 20.9904C22.4319 22.4579 24.2918 23.1916 26.5443 23.1916Z" fill="black"/>
</svg>
